<svg width="47" height="52" viewBox="0 0 47 52" fill="none" xmlns="http://www.w3.org/2000/svg">
<path fill-rule="evenodd" clip-rule="evenodd" d="M13 0V8H17V0H13ZM21 2V8H25V2H21ZM1 12.1875L0.75 10H39.25L39 12.1875L38.1875 20H41C44.2891 20 47 22.7109 47 26V32C47 35.2891 44.2891 38 41 38H36.3125L35.375 46.625C35.0547 49.6641 32.4297 52 29.375 52H10.625C7.57031 52 4.94531 49.6641 4.625 46.625L1 12.1875ZM5.25 14H34.75L31.375 46.1875C31.2656 47.2266 30.4141 48 29.375 48H10.625C9.58594 48 8.73438 47.2266 8.625 46.1875L5.25 14ZM41 24H37.75L36.6875 34H41C42.1328 34 43 33.1328 43 32V26C43 24.8672 42.1328 24 41 24Z" fill="white"/>
</svg>
