<svg width="42" height="43" viewBox="0 0 42 43" fill="none" xmlns="http://www.w3.org/2000/svg">
<path fill-rule="evenodd" clip-rule="evenodd" d="M10.7929 0.0394287C5.20085 0.0394287 0.625532 4.58819 0.625532 10.1479C0.625532 15.7074 5.20085 20.2562 10.7929 20.2562C16.3849 20.2562 20.9602 15.7074 20.9602 10.1479C20.9603 4.58819 16.385 0.0394287 10.7929 0.0394287ZM10.7929 15.7074C7.74266 15.7074 5.20085 13.1804 5.20085 10.1479C5.20085 7.11536 7.74266 4.58831 10.7929 4.58831C13.8431 4.58831 16.3849 7.11536 16.3849 10.1479C16.385 13.1804 13.8431 15.7074 10.7929 15.7074ZM31.1277 22.7832C25.5356 22.7832 20.9603 27.332 20.9603 32.8915C20.9603 38.4511 25.5356 43 31.1277 43C36.7197 43 41.295 38.4512 41.295 32.8917C41.295 27.3321 36.7197 22.7832 31.1277 22.7832ZM31.1277 38.4512C28.0774 38.4512 25.5356 35.9242 25.5356 32.8917C25.5356 29.8592 28.0774 27.332 31.1277 27.332C34.1779 27.332 36.7197 29.859 36.7197 32.8915C36.7197 35.9241 34.1779 38.4512 31.1277 38.4512Z" fill="white"/>
</svg>
